<svg id="google" xmlns="http://www.w3.org/2000/svg" width="25" height="25" viewBox="0 0 25 25">
  <path id="Path_9" data-name="Path 9" d="M5.561,146.655l-.873,3.261-3.192.068A12.568,12.568,0,0,1,1.4,138.268h0l2.842.521,1.245,2.825a7.488,7.488,0,0,0,.07,5.041Z" transform="translate(0 -131.538)" fill="#fbbb00"/>
  <path id="Path_10" data-name="Path 10" d="M273.679,208.176a12.541,12.541,0,0,1-4.472,12.128h0l-3.58-.183-.507-3.163a7.477,7.477,0,0,0,3.217-3.818h-6.709v-4.963h12.051Z" transform="translate(-248.898 -198.066)" fill="#518ef8"/>
  <path id="Path_11" data-name="Path 11" d="M49.414,316.575h0a12.55,12.55,0,0,1-18.905-3.838l4.066-3.328a7.462,7.462,0,0,0,10.752,3.82Z" transform="translate(-29.014 -294.338)" fill="#28b446"/>
  <path id="Path_12" data-name="Path 12" d="M48.705,2.888,44.444,6.216a8.057,8.057,0,0,0-4.135-1.128,7.8,7.8,0,0,0-7.4,5.034L28.625,6.776h0A13.241,13.241,0,0,1,40.308,0,13.491,13.491,0,0,1,48.705,2.888Z" transform="translate(-27.221)" fill="#f14336"/>
</svg>
