<svg xmlns="http://www.w3.org/2000/svg" width="25" height="25" viewBox="0 0 25 25">
  <g id="linkedin" transform="translate(-1115 -721)">
    <path id="linkedin-2" data-name="linkedin" d="M22.739,0H2.261A2.261,2.261,0,0,0,0,2.261V22.738A2.261,2.261,0,0,0,2.261,25H22.738A2.261,2.261,0,0,0,25,22.738V2.261A2.261,2.261,0,0,0,22.739,0Zm-15,21.587a.658.658,0,0,1-.658.658h-2.8a.658.658,0,0,1-.658-.658V9.843a.658.658,0,0,1,.658-.658h2.8a.658.658,0,0,1,.658.658ZM5.677,8.078A2.661,2.661,0,1,1,8.339,5.417,2.661,2.661,0,0,1,5.677,8.078Zm16.7,13.562a.605.605,0,0,1-.605.605H18.765a.605.605,0,0,1-.605-.605V16.131c0-.822.241-3.6-2.147-3.6-1.853,0-2.228,1.9-2.3,2.756V21.64a.605.605,0,0,1-.605.605H10.2a.605.605,0,0,1-.605-.605V9.79a.605.605,0,0,1,.605-.605H13.1a.605.605,0,0,1,.605.605v1.025A4.127,4.127,0,0,1,17.59,8.988c4.814,0,4.786,4.5,4.786,6.968V21.64Z" transform="translate(1115 721)" fill="#0077b7"/>
  </g>
</svg>
